<svg viewBox="0 0 480 300" xmlns="http://www.w3.org/2000/svg" role="img" aria-label="B.PREMIER本日開幕 A東京vs琉球 10年前と同じ顔合わせで新時代へ">
<defs><linearGradient id="g" x1="0" y1="0" x2="1" y2="1"><stop offset="0" stop-color="#ff7a1f"/><stop offset="1" stop-color="#c13d0a"/></linearGradient></defs>
<rect width="480" height="300" fill="url(#g)"/>
<g stroke="#ffffff" stroke-width="3" fill="none" opacity="0.12">
<circle cx="384" cy="252" r="84"/><line x1="300" y1="120" x2="300" y2="300"/>
<path d="M300 168 a64 64 0 0 1 0 128"/><rect x="-30" y="46" width="118" height="150"/><circle cx="29" cy="121" r="48"/>
</g>
<g transform="translate(398,74)" opacity="0.16"><circle r="74" fill="#ffffff"/><path d="M-74 0H74 M0 -74V74 M-52 -52Q0 0 52 52 M52 -52Q0 0 -52 52" stroke="#0d1b2a" stroke-width="4" fill="none"/></g>
<rect x="28" y="26" rx="16" ry="16" width="72" height="34" fill="#ffffff"/>
<text x="64.0" y="49" font-family="'Hiragino Kaku Gothic ProN','Noto Sans JP','Yu Gothic',Meiryo,sans-serif" font-weight="800" font-size="17" fill="#c13d0a" text-anchor="middle" letter-spacing="1">速報</text>
<text x="30" y="150" font-family="'Hiragino Kaku Gothic ProN','Noto Sans JP','Yu Gothic',Meiryo,sans-serif" font-weight="900" font-size="26" fill="#ffffff">B.PREMIER本日開幕</text>
<text x="30" y="184" font-family="'Hiragino Kaku Gothic ProN','Noto Sans JP','Yu Gothic',Meiryo,sans-serif" font-weight="800" font-size="18" fill="#ffffff" opacity="0.96">A東京vs琉球 10年前と同じ顔合わせ</text>
<text x="30" y="214" font-family="'Hiragino Kaku Gothic ProN','Noto Sans JP','Yu Gothic',Meiryo,sans-serif" font-weight="700" font-size="16" fill="#ffffff" opacity="0.85">新HC体制で迎える運命の一戦</text>
<text x="454" y="284" font-family="'Hiragino Kaku Gothic ProN','Noto Sans JP','Yu Gothic',Meiryo,sans-serif" text-anchor="end" font-weight="800" font-size="13" fill="#ffffff" opacity="0.65">Bリーグ まとめ</text>
</svg>
