<svg viewBox="0 0 480 300" xmlns="http://www.w3.org/2000/svg" role="img" aria-label="B.LEAGUE 2026-27 TIPOFF CEREMONY 増上寺で開催 全55クラブ代表集結">
<defs><linearGradient id="g" x1="0" y1="0" x2="1" y2="1"><stop offset="0" stop-color="#e85d04"/><stop offset="1" stop-color="#9d0208"/></linearGradient></defs>
<rect width="480" height="300" fill="url(#g)"/>
<g stroke="#ffffff" stroke-width="3" fill="none" opacity="0.12">
<circle cx="384" cy="252" r="84"/><line x1="300" y1="120" x2="300" y2="300"/>
<path d="M300 168 a64 64 0 0 1 0 128"/><rect x="-30" y="46" width="118" height="150"/><circle cx="29" cy="121" r="48"/>
</g>
<g transform="translate(398,74)" opacity="0.16"><circle r="74" fill="#ffffff"/><path d="M-74 0H74 M0 -74V74 M-52 -52Q0 0 52 52 M52 -52Q0 0 -52 52" stroke="#0d1b2a" stroke-width="4" fill="none"/></g>
<rect x="28" y="26" rx="16" ry="16" width="72" height="34" fill="#ffffff"/>
<text x="64" y="49" font-family="'Hiragino Kaku Gothic ProN','Noto Sans JP','Yu Gothic',Meiryo,sans-serif" font-weight="800" font-size="17" fill="#c1121f" text-anchor="middle" letter-spacing="1">速報</text>
<text x="30" y="168" font-family="'Hiragino Kaku Gothic ProN','Noto Sans JP','Yu Gothic',Meiryo,sans-serif" font-weight="900" font-size="26" fill="#ffffff">TIPOFF CEREMONY開催</text>
<text x="30" y="204" font-family="'Hiragino Kaku Gothic ProN','Noto Sans JP','Yu Gothic',Meiryo,sans-serif" font-weight="900" font-size="26" fill="#ffffff">増上寺に全55クラブ集結</text>
<text x="30" y="240" font-family="'Hiragino Kaku Gothic ProN','Noto Sans JP','Yu Gothic',Meiryo,sans-serif" font-weight="700" font-size="17" fill="#ffffff" opacity="0.94">9月22日開幕まであと3週間</text>
<text x="454" y="284" font-family="'Hiragino Kaku Gothic ProN','Noto Sans JP','Yu Gothic',Meiryo,sans-serif" text-anchor="end" font-weight="800" font-size="13" fill="#ffffff" opacity="0.65">Bリーグ まとめ</text>
</svg>
